<svg viewBox="0 0 24 24" xmlns="http://www.w3.org/2000/svg" xmlns:xlink="http://www.w3.org/1999/xlink" width="24.000000" height="24.000000" fill="none">
	<rect id="Icon" width="24.000000" height="24.000000" x="0.000000" y="0.000000" />
	<path id="Path 9" d="M22 5.79875C21.2563 6.125 20.4637 6.34125 19.6375 6.44625C20.4875 5.93875 21.1363 5.14125 21.4412 4.18C20.6488 4.6525 19.7738 4.98625 18.8412 5.1725C18.0887 4.37125 17.0162 3.875 15.8462 3.875C13.5763 3.875 11.7487 5.7175 11.7487 7.97625C11.7487 8.30125 11.7762 8.61375 11.8438 8.91125C8.435 8.745 5.4188 7.11125 3.3925 4.6225C3.0387 5.23625 2.8313 5.93875 2.8313 6.695C2.8313 8.115 3.5625 9.37375 4.6525 10.1025C3.9937 10.09 3.3475 9.8988 2.8 9.5975L2.8 9.6425C2.8 11.635 4.2212 13.29 6.085 13.6712C5.7512 13.7625 5.3875 13.8062 5.01 13.8062C4.7475 13.8062 4.4825 13.7913 4.2337 13.7362C4.765 15.36 6.2725 16.5538 8.065 16.5925C6.67 17.6838 4.8988 18.3412 2.9813 18.3412C2.645 18.3412 2.3225 18.3263 2 18.285C3.8162 19.4563 5.9688 20.125 8.29 20.125C15.835 20.125 19.96 13.875 19.96 8.4575C19.96 8.27625 19.9538 8.10125 19.945 7.9275C20.7588 7.35 21.4425 6.62875 22 5.79875Z" fill="rgb(0,0,0)" fill-rule="nonzero" />
</svg>
