<svg viewBox="0 0 24 24" xmlns="http://www.w3.org/2000/svg" xmlns:xlink="http://www.w3.org/1999/xlink" width="24.000000" height="24.000000" fill="none">
	<rect id="Icon" width="24.000000" height="24.000000" x="0.000000" y="0.000000" />
	<path id="Path 10" d="M22 22L22 14.675C22 11.075 21.225 8.325 17.025 8.325C15 8.325 13.65 9.425 13.1 10.475L13.05 10.475L13.05 8.65L9.075 8.65L9.075 22L13.225 22L13.225 15.375C13.225 13.625 13.55 11.95 15.7 11.95C17.825 11.95 17.85 13.925 17.85 15.475L17.85 21.975L22 21.975L22 22ZM2.325 8.65L6.475 8.65L6.475 22L2.325 22L2.325 8.65ZM4.4 2C3.075 2 2 3.075 2 4.4C2 5.725 3.075 6.825 4.4 6.825C5.725 6.825 6.8 5.725 6.8 4.4C6.8 3.075 5.725 2 4.4 2Z" fill="rgb(0,0,0)" fill-rule="nonzero" />
</svg>
