<svg viewBox="0 0 24 24" xmlns="http://www.w3.org/2000/svg" xmlns:xlink="http://www.w3.org/1999/xlink" width="24.000000" height="24.000000" fill="none">
	<rect id="map-pin" width="24.000000" height="24.000000" x="0.000000" y="0.000000" fill="rgb(255,255,255)" fill-opacity="0" />
	<path id="Vector" d="M13.9104 7.06394C14.6586 7.20991 15.3462 7.57582 15.8852 8.11483C16.4242 8.65383 16.7901 9.34142 16.9361 10.0896M13.9104 4C15.4648 4.17268 16.9143 4.86876 18.0209 5.97395C19.1275 7.07914 19.8254 8.52775 20 10.0819M19.234 18.4924C19.2349 18.7058 19.1912 18.9169 19.1057 19.1124C19.0203 19.3079 18.8949 19.4833 18.7377 19.6275C18.5805 19.7718 18.3949 19.8815 18.1928 19.9499C17.9908 20.0182 17.7766 20.0436 17.5642 20.0244C15.2071 19.7683 12.943 18.9629 10.9537 17.6728C9.10295 16.4968 7.53384 14.9277 6.35779 13.0769C5.06326 11.0786 4.25765 8.80349 4.00622 6.43583C3.98708 6.22401 4.01225 6.01053 4.08014 5.80897C4.14802 5.60741 4.25713 5.4222 4.40052 5.26512C4.54391 5.10804 4.71843 4.98254 4.91298 4.8966C5.10753 4.81067 5.31785 4.76619 5.53053 4.76599L7.82849 4.76599C8.20022 4.76233 8.56061 4.89397 8.84247 5.13636C9.12433 5.37876 9.30843 5.71538 9.36046 6.08348C9.45745 6.81888 9.63732 7.54094 9.89665 8.2359C9.99971 8.51007 10.022 8.80803 9.96092 9.09448C9.89983 9.38093 9.7579 9.64387 9.55195 9.85213L8.57915 10.8249C9.66958 12.7426 11.2574 14.3304 13.1751 15.4208L14.1479 14.448C14.3561 14.2421 14.6191 14.1002 14.9055 14.0391C15.192 13.978 15.4899 14.0003 15.7641 14.1034C16.4591 14.3627 17.1811 14.5426 17.9165 14.6395C18.2886 14.692 18.6284 14.8795 18.8713 15.1662C19.1143 15.4529 19.2433 15.8188 19.234 16.1945L19.234 18.4924Z" fill-rule="nonzero" stroke="rgb(0,0,0)" stroke-linecap="round" stroke-linejoin="round" stroke-width="1.14897859" />
</svg>
