<svg viewBox="0 0 24 24" xmlns="http://www.w3.org/2000/svg" xmlns:xlink="http://www.w3.org/1999/xlink" width="24.000000" height="24.000000" fill="none">
	<rect id="Icon" width="24.000000" height="24.000000" x="0.000000" y="0.000000" />
	<path id="Path 8" d="M12.0001 2C6.47724 2 2 6.47724 2 12.0001C2 16.9534 5.60522 21.0556 10.3322 21.8499L10.3322 14.0863L7.91994 14.0863L7.91994 11.2925L10.3322 11.2925L10.3322 9.2325C10.3322 6.84227 11.7921 5.53973 13.9247 5.53973C14.9461 5.53973 15.8238 5.61583 16.0786 5.64936L16.0786 8.14779L14.5995 8.14851C13.44 8.14851 13.2165 8.69939 13.2165 9.50807L13.2165 11.2911L15.9832 11.2911L15.6223 14.0849L13.2165 14.0849L13.2165 21.9167C18.1642 21.3146 22 17.1079 22 11.9972C22 6.47724 17.5228 2 12.0001 2Z" fill="rgb(0,0,0)" fill-rule="nonzero" />
</svg>
