<svg viewBox="0 0 24 24" xmlns="http://www.w3.org/2000/svg" xmlns:xlink="http://www.w3.org/1999/xlink" width="24.000000" height="24.000000" fill="none">
	<rect id="Icon" width="24.000000" height="24.000000" x="0.000000" y="0.000000" />
	<path id="Vector" d="M21.945 7.88008C21.898 6.81737 21.727 6.08683 21.48 5.45373C21.226 4.78177 20.836 4.18016 20.324 3.68002C19.824 3.17211 19.218 2.77742 18.554 2.52745C17.917 2.28131 17.19 2.1094 16.128 2.06259C15.057 2.01172 14.717 2 12.002 2C9.287 2 8.947 2.01172 7.88 2.05861C6.817 2.10549 6.087 2.27748 5.454 2.52346C4.782 2.77742 4.18 3.16812 3.68 3.68002C3.172 4.18012 2.778 4.78571 2.527 5.44991C2.281 6.08683 2.109 6.81346 2.062 7.87609C2.012 8.94673 2 9.28661 2 12.002C2 14.7174 2.012 15.0573 2.059 16.1239C2.105 17.1866 2.277 17.9172 2.524 18.5502C2.778 19.2222 3.172 19.8238 3.68 20.324C4.18 20.8319 4.786 21.2266 5.45 21.4765C6.087 21.7227 6.813 21.8946 7.876 21.9414C8.943 21.9884 9.283 22 11.998 22C14.713 22 15.053 21.9884 16.12 21.9414C17.183 21.8945 17.913 21.7227 18.546 21.4765C19.211 21.2195 19.815 20.8265 20.319 20.3225C20.822 19.8186 21.216 19.215 21.473 18.5502C21.719 17.9134 21.891 17.1866 21.938 16.1239C21.984 15.0573 21.996 14.7174 21.996 12.002C21.996 9.28661 21.992 8.9467 21.945 7.88008ZM20.144 16.0458C20.101 17.0225 19.937 17.55 19.8 17.9016C19.464 18.7729 18.773 19.4644 17.902 19.8005C17.55 19.9372 17.019 20.1013 16.046 20.1442C14.991 20.1912 14.674 20.2028 12.006 20.2028C9.337 20.2028 9.017 20.1912 7.966 20.1442C6.989 20.1013 6.462 19.9372 6.11 19.8005C5.677 19.6402 5.282 19.3863 4.961 19.0542C4.629 18.7299 4.375 18.3392 4.215 17.9056C4.078 17.554 3.914 17.0225 3.871 16.0498C3.824 14.9949 3.813 14.6783 3.813 12.0098C3.813 9.34123 3.824 9.02089 3.871 7.96998C3.914 6.99322 4.078 6.46577 4.215 6.11414C4.375 5.68038 4.629 5.28581 4.965 4.96536C5.29 4.63326 5.68 4.3793 6.114 4.21923C6.466 4.08248 6.997 3.91839 7.97 3.87537C9.025 3.82849 9.341 3.81677 12.01 3.81677C14.682 3.81677 14.999 3.82849 16.05 3.87537C17.026 3.91843 17.554 4.08245 17.905 4.21919C18.339 4.3793 18.734 4.63326 19.054 4.96536C19.386 5.28968 19.64 5.68038 19.8 6.11414C19.937 6.46577 20.101 6.99701 20.144 7.96998C20.191 9.02488 20.203 9.34123 20.203 12.0098C20.203 14.6783 20.191 14.9909 20.144 16.0458ZM17.343 7.86075C18.005 7.86075 18.542 7.32369 18.542 6.66129C18.542 5.99877 18.005 5.46191 17.343 5.46191C16.68 5.46191 16.143 5.99881 16.143 6.66129C16.143 7.32369 16.68 7.86075 17.343 7.86075ZM6.86401 12.0022C6.86401 9.16562 9.16602 6.86446 12.002 6.86446C14.838 6.86446 17.14 9.16562 17.14 12.0022C17.14 14.8387 14.838 17.1399 12.002 17.1399C9.16602 17.1399 6.86401 14.8387 6.86401 12.0022ZM8.66901 12.0022C8.66901 13.8424 10.162 15.3349 12.002 15.3349C13.842 15.3349 15.335 13.8424 15.335 12.0022C15.335 10.1619 13.842 8.6695 12.002 8.6695C10.162 8.6695 8.66901 10.1619 8.66901 12.0022Z" fill="rgb(0,0,0)" fill-rule="evenodd" />
</svg>
