<svg viewBox="0 0 24 24" xmlns="http://www.w3.org/2000/svg" xmlns:xlink="http://www.w3.org/1999/xlink" width="24.000000" height="24.000000" fill="none">
	<rect id="map-pin" width="24.000000" height="24.000000" x="0.000000" y="0.000000" fill="rgb(255,255,255)" fill-opacity="0" />
	<g id="Group 1">
		<path id="Vector" d="M12 20C12 20 5.45459 15.6364 5.45459 10.5455C5.45459 8.80949 6.1442 7.14463 7.37171 5.91712C8.59922 4.68961 10.2641 4 12 4C13.736 4 15.4009 4.68961 16.6284 5.91712C17.8559 7.14463 18.5455 8.80949 18.5455 10.5455C18.5455 15.6364 12 20 12 20Z" fill-rule="nonzero" stroke="rgb(0,0,0)" stroke-linecap="round" stroke-linejoin="round" stroke-width="1.090909" />
		<path id="Vector" d="M11.9999 12.7273C10.7949 12.7273 9.81812 11.7505 9.81812 10.5455C9.81812 9.34048 10.7949 8.36365 11.9999 8.36365C13.2049 8.36365 14.1818 9.34048 14.1818 10.5455C14.1818 11.7505 13.2049 12.7273 11.9999 12.7273Z" stroke="rgb(0,0,0)" stroke-linecap="round" stroke-linejoin="round" stroke-width="1.090909" />
	</g>
</svg>
